<svg xmlns="http://www.w3.org/2000/svg" width="20" height="20" viewBox="0 0 20 20">
  <defs>
    <style>
      .cls-1 {
        fill: #fff;
        fill-rule: evenodd;
      }
    </style>
  </defs>
  <path id="instagram.svg" class="cls-1" d="M1211.3,9980.57a1.175,1.175,0,1,0,1.17,1.17A1.171,1.171,0,0,0,1211.3,9980.57Zm-5.21,1.51a4.92,4.92,0,1,0,4.92,4.92A4.925,4.925,0,0,0,1206.09,9982.08Zm0,8.07a3.15,3.15,0,1,1,3.15-3.15A3.158,3.158,0,0,1,1206.09,9990.15ZM1210,9997h-7.99a6.013,6.013,0,0,1-6-6.01v-7.98a6.013,6.013,0,0,1,6-6.01H1210a6.013,6.013,0,0,1,6,6.01v7.98A6.013,6.013,0,0,1,1210,9997Zm-7.99-18.12a4.129,4.129,0,0,0-4.12,4.13v7.98a4.121,4.121,0,0,0,4.12,4.12H1210a4.121,4.121,0,0,0,4.12-4.12v-7.98a4.129,4.129,0,0,0-4.12-4.13h-7.99Z" transform="translate(-1196 -9977)"/>
</svg>
